# xmcd
#
# Track frame offsets: 
#        150
#        16112
#        29485
#        44520
#        59425
#        77745
#        94020
#        110678
#        122018
#        138025
#
# Disc length: 2055 seconds
#
# Revision: 0
# Processed by: cddbd v1.5.2PL0 Copyright (c) Steve Scherf et al.
# Submitted via: ExactAudioCopy v0.95b4
#
DISCID=7d08050a
DTITLE=Olivia Newton-John - Don't Stop Believin'
DYEAR=1976
DGENRE=Country
TTITLE0=Don't Stop Believin'
TTITLE1=A Thousand Conversations
TTITLE2=Compassionate Man
TTITLE3=New Born Babe
TTITLE4=Hey Mr Dreammaker
TTITLE5=Every Face Tells A Story
TTITLE6=Sam
TTITLE7=Love You Hold The Key
TTITLE8=I'll Bet You A Kangaroo
TTITLE9=Last Time You Loved
EXTD=
EXTT0=
EXTT1=
EXTT2=
EXTT3=
EXTT4=
EXTT5=
EXTT6=
EXTT7=
EXTT8=
EXTT9=
PLAYORDER=
